<svg xmlns="http://www.w3.org/2000/svg" version="1.1" xmlns:xlink="http://www.w3.org/1999/xlink" xmlns:svgjs="http://svgjs.dev/svgjs" width="1440" height="560" preserveAspectRatio="none" viewBox="0 0 1440 560">
    <g mask="url(&quot;#SvgjsMask1002&quot;)" fill="none">
        <rect width="1440" height="560" x="0" y="0" fill="rgba(234, 255, 243, 1)"></rect>
        <path d="M125.31 71.95L190.27 109.45L190.27 184.45L125.31 221.95L60.36 184.45L60.36 109.45zM125.31 521.95L190.27 559.45L190.27 634.45L125.31 671.95L60.36 634.45L60.36 559.45zM255.22 71.95L320.18 109.45L320.18 184.45L255.22 221.95L190.27 184.45L190.27 109.45zM190.27 184.45L255.22 221.95L255.22 296.95L190.27 334.45L125.31 296.95L125.31 221.95zM190.27 409.45L255.22 446.95L255.22 521.95L190.27 559.45L125.31 521.95L125.31 446.95zM385.13 71.95L450.08 109.45L450.08 184.45L385.13 221.95L320.18 184.45L320.18 109.45zM320.18 184.45L385.13 221.95L385.13 296.95L320.18 334.45L255.22 296.95L255.22 221.95zM450.08 -40.55L515.04 -3.05L515.04 71.95L450.08 109.45L385.13 71.95L385.13 -3.05zM450.08 184.45L515.04 221.95L515.04 296.95L450.08 334.45L385.13 296.95L385.13 221.95zM450.08 409.45L515.04 446.95L515.04 521.95L450.08 559.45L385.13 521.95L385.13 446.95zM515.04 521.95L579.99 559.45L579.99 634.45L515.04 671.95L450.08 634.45L450.08 559.45zM644.94 71.95L709.9 109.45L709.9 184.45L644.94 221.95L579.99 184.45L579.99 109.45zM579.99 184.45L644.94 221.95L644.94 296.95L579.99 334.45L515.04 296.95L515.04 221.95zM579.99 409.45L644.94 446.95L644.94 521.95L579.99 559.45L515.04 521.95L515.04 446.95zM644.94 521.95L709.9 559.45L709.9 634.45L644.94 671.95L579.99 634.45L579.99 559.45zM709.9 -40.55L774.85 -3.05L774.85 71.95L709.9 109.45L644.94 71.95L644.94 -3.05zM774.85 71.95L839.81 109.45L839.81 184.45L774.85 221.95L709.9 184.45L709.9 109.45zM774.85 521.95L839.81 559.45L839.81 634.45L774.85 671.95L709.9 634.45L709.9 559.45zM904.76 296.95L969.71 334.45L969.71 409.45L904.76 446.95L839.8 409.45L839.8 334.45zM969.71 184.45L1034.67 221.95L1034.67 296.95L969.71 334.45L904.76 296.95L904.76 221.95zM1034.67 296.95L1099.62 334.45L1099.62 409.45L1034.67 446.95L969.71 409.45L969.71 334.45zM1164.57 71.95L1229.53 109.45L1229.53 184.45L1164.57 221.95L1099.62 184.45L1099.62 109.45zM1099.62 184.45L1164.57 221.95L1164.57 296.95L1099.62 334.45L1034.67 296.95L1034.67 221.95zM1099.62 409.45L1164.57 446.95L1164.57 521.95L1099.62 559.45L1034.67 521.95L1034.67 446.95zM1229.53 -40.55L1294.48 -3.05L1294.48 71.95L1229.53 109.45L1164.57 71.95L1164.57 -3.05zM1294.48 296.95L1359.43 334.45L1359.43 409.45L1294.48 446.95L1229.53 409.45L1229.53 334.45zM1294.48 521.95L1359.43 559.45L1359.43 634.45L1294.48 671.95L1229.53 634.45L1229.53 559.45zM1424.39 71.95L1489.34 109.45L1489.34 184.45L1424.39 221.95L1359.43 184.45L1359.43 109.45zM1359.43 184.45L1424.39 221.95L1424.39 296.95L1359.43 334.45L1294.48 296.95L1294.48 221.95zM1359.43 409.45L1424.39 446.95L1424.39 521.95L1359.43 559.45L1294.48 521.95L1294.48 446.95zM1489.34 184.45L1554.3 221.95L1554.3 296.95L1489.34 334.45L1424.39 296.95L1424.39 221.95zM1489.34 409.45L1554.3 446.95L1554.3 521.95L1489.34 559.45L1424.39 521.95L1424.39 446.95zM1554.3 521.95L1619.25 559.45L1619.25 634.45L1554.3 671.95L1489.34 634.45L1489.34 559.45z" stroke="rgba(0, 0, 0, 0)" stroke-width="2"></path>
        <path d="M117.81 71.95 a7.5 7.5 0 1 0 15 0 a7.5 7.5 0 1 0 -15 0zM182.77 109.45 a7.5 7.5 0 1 0 15 0 a7.5 7.5 0 1 0 -15 0zM182.77 184.45 a7.5 7.5 0 1 0 15 0 a7.5 7.5 0 1 0 -15 0zM117.81 221.95 a7.5 7.5 0 1 0 15 0 a7.5 7.5 0 1 0 -15 0zM52.86 184.45 a7.5 7.5 0 1 0 15 0 a7.5 7.5 0 1 0 -15 0zM52.86 109.45 a7.5 7.5 0 1 0 15 0 a7.5 7.5 0 1 0 -15 0zM117.81 521.95 a7.5 7.5 0 1 0 15 0 a7.5 7.5 0 1 0 -15 0zM182.77 559.45 a7.5 7.5 0 1 0 15 0 a7.5 7.5 0 1 0 -15 0zM182.77 634.45 a7.5 7.5 0 1 0 15 0 a7.5 7.5 0 1 0 -15 0zM117.81 671.95 a7.5 7.5 0 1 0 15 0 a7.5 7.5 0 1 0 -15 0zM52.86 634.45 a7.5 7.5 0 1 0 15 0 a7.5 7.5 0 1 0 -15 0zM52.86 559.45 a7.5 7.5 0 1 0 15 0 a7.5 7.5 0 1 0 -15 0zM247.72 71.95 a7.5 7.5 0 1 0 15 0 a7.5 7.5 0 1 0 -15 0zM312.68 109.45 a7.5 7.5 0 1 0 15 0 a7.5 7.5 0 1 0 -15 0zM312.68 184.45 a7.5 7.5 0 1 0 15 0 a7.5 7.5 0 1 0 -15 0zM247.72 221.95 a7.5 7.5 0 1 0 15 0 a7.5 7.5 0 1 0 -15 0zM247.72 296.95 a7.5 7.5 0 1 0 15 0 a7.5 7.5 0 1 0 -15 0zM182.77 334.45 a7.5 7.5 0 1 0 15 0 a7.5 7.5 0 1 0 -15 0zM117.81 296.95 a7.5 7.5 0 1 0 15 0 a7.5 7.5 0 1 0 -15 0zM182.77 409.45 a7.5 7.5 0 1 0 15 0 a7.5 7.5 0 1 0 -15 0zM247.72 446.95 a7.5 7.5 0 1 0 15 0 a7.5 7.5 0 1 0 -15 0zM247.72 521.95 a7.5 7.5 0 1 0 15 0 a7.5 7.5 0 1 0 -15 0zM117.81 446.95 a7.5 7.5 0 1 0 15 0 a7.5 7.5 0 1 0 -15 0zM377.63 71.95 a7.5 7.5 0 1 0 15 0 a7.5 7.5 0 1 0 -15 0zM442.58 109.45 a7.5 7.5 0 1 0 15 0 a7.5 7.5 0 1 0 -15 0zM442.58 184.45 a7.5 7.5 0 1 0 15 0 a7.5 7.5 0 1 0 -15 0zM377.63 221.95 a7.5 7.5 0 1 0 15 0 a7.5 7.5 0 1 0 -15 0zM377.63 296.95 a7.5 7.5 0 1 0 15 0 a7.5 7.5 0 1 0 -15 0zM312.68 334.45 a7.5 7.5 0 1 0 15 0 a7.5 7.5 0 1 0 -15 0zM442.58 -40.55 a7.5 7.5 0 1 0 15 0 a7.5 7.5 0 1 0 -15 0zM507.54 -3.05 a7.5 7.5 0 1 0 15 0 a7.5 7.5 0 1 0 -15 0zM507.54 71.95 a7.5 7.5 0 1 0 15 0 a7.5 7.5 0 1 0 -15 0zM377.63 -3.05 a7.5 7.5 0 1 0 15 0 a7.5 7.5 0 1 0 -15 0zM507.54 221.95 a7.5 7.5 0 1 0 15 0 a7.5 7.5 0 1 0 -15 0zM507.54 296.95 a7.5 7.5 0 1 0 15 0 a7.5 7.5 0 1 0 -15 0zM442.58 334.45 a7.5 7.5 0 1 0 15 0 a7.5 7.5 0 1 0 -15 0zM442.58 409.45 a7.5 7.5 0 1 0 15 0 a7.5 7.5 0 1 0 -15 0zM507.54 446.95 a7.5 7.5 0 1 0 15 0 a7.5 7.5 0 1 0 -15 0zM507.54 521.95 a7.5 7.5 0 1 0 15 0 a7.5 7.5 0 1 0 -15 0zM442.58 559.45 a7.5 7.5 0 1 0 15 0 a7.5 7.5 0 1 0 -15 0zM377.63 521.95 a7.5 7.5 0 1 0 15 0 a7.5 7.5 0 1 0 -15 0zM377.63 446.95 a7.5 7.5 0 1 0 15 0 a7.5 7.5 0 1 0 -15 0zM572.49 559.45 a7.5 7.5 0 1 0 15 0 a7.5 7.5 0 1 0 -15 0zM572.49 634.45 a7.5 7.5 0 1 0 15 0 a7.5 7.5 0 1 0 -15 0zM507.54 671.95 a7.5 7.5 0 1 0 15 0 a7.5 7.5 0 1 0 -15 0zM442.58 634.45 a7.5 7.5 0 1 0 15 0 a7.5 7.5 0 1 0 -15 0zM637.44 71.95 a7.5 7.5 0 1 0 15 0 a7.5 7.5 0 1 0 -15 0zM702.4 109.45 a7.5 7.5 0 1 0 15 0 a7.5 7.5 0 1 0 -15 0zM702.4 184.45 a7.5 7.5 0 1 0 15 0 a7.5 7.5 0 1 0 -15 0zM637.44 221.95 a7.5 7.5 0 1 0 15 0 a7.5 7.5 0 1 0 -15 0zM572.49 184.45 a7.5 7.5 0 1 0 15 0 a7.5 7.5 0 1 0 -15 0zM572.49 109.45 a7.5 7.5 0 1 0 15 0 a7.5 7.5 0 1 0 -15 0zM637.44 296.95 a7.5 7.5 0 1 0 15 0 a7.5 7.5 0 1 0 -15 0zM572.49 334.45 a7.5 7.5 0 1 0 15 0 a7.5 7.5 0 1 0 -15 0zM572.49 409.45 a7.5 7.5 0 1 0 15 0 a7.5 7.5 0 1 0 -15 0zM637.44 446.95 a7.5 7.5 0 1 0 15 0 a7.5 7.5 0 1 0 -15 0zM637.44 521.95 a7.5 7.5 0 1 0 15 0 a7.5 7.5 0 1 0 -15 0zM702.4 559.45 a7.5 7.5 0 1 0 15 0 a7.5 7.5 0 1 0 -15 0zM702.4 634.45 a7.5 7.5 0 1 0 15 0 a7.5 7.5 0 1 0 -15 0zM637.44 671.95 a7.5 7.5 0 1 0 15 0 a7.5 7.5 0 1 0 -15 0zM702.4 -40.55 a7.5 7.5 0 1 0 15 0 a7.5 7.5 0 1 0 -15 0zM767.35 -3.05 a7.5 7.5 0 1 0 15 0 a7.5 7.5 0 1 0 -15 0zM767.35 71.95 a7.5 7.5 0 1 0 15 0 a7.5 7.5 0 1 0 -15 0zM637.44 -3.05 a7.5 7.5 0 1 0 15 0 a7.5 7.5 0 1 0 -15 0zM832.31 109.45 a7.5 7.5 0 1 0 15 0 a7.5 7.5 0 1 0 -15 0zM832.31 184.45 a7.5 7.5 0 1 0 15 0 a7.5 7.5 0 1 0 -15 0zM767.35 221.95 a7.5 7.5 0 1 0 15 0 a7.5 7.5 0 1 0 -15 0zM767.35 521.95 a7.5 7.5 0 1 0 15 0 a7.5 7.5 0 1 0 -15 0zM832.31 559.45 a7.5 7.5 0 1 0 15 0 a7.5 7.5 0 1 0 -15 0zM832.31 634.45 a7.5 7.5 0 1 0 15 0 a7.5 7.5 0 1 0 -15 0zM767.35 671.95 a7.5 7.5 0 1 0 15 0 a7.5 7.5 0 1 0 -15 0zM897.26 296.95 a7.5 7.5 0 1 0 15 0 a7.5 7.5 0 1 0 -15 0zM962.21 334.45 a7.5 7.5 0 1 0 15 0 a7.5 7.5 0 1 0 -15 0zM962.21 409.45 a7.5 7.5 0 1 0 15 0 a7.5 7.5 0 1 0 -15 0zM897.26 446.95 a7.5 7.5 0 1 0 15 0 a7.5 7.5 0 1 0 -15 0zM832.3 409.45 a7.5 7.5 0 1 0 15 0 a7.5 7.5 0 1 0 -15 0zM832.3 334.45 a7.5 7.5 0 1 0 15 0 a7.5 7.5 0 1 0 -15 0zM962.21 184.45 a7.5 7.5 0 1 0 15 0 a7.5 7.5 0 1 0 -15 0zM1027.17 221.95 a7.5 7.5 0 1 0 15 0 a7.5 7.5 0 1 0 -15 0zM1027.17 296.95 a7.5 7.5 0 1 0 15 0 a7.5 7.5 0 1 0 -15 0zM897.26 221.95 a7.5 7.5 0 1 0 15 0 a7.5 7.5 0 1 0 -15 0zM1092.12 334.45 a7.5 7.5 0 1 0 15 0 a7.5 7.5 0 1 0 -15 0zM1092.12 409.45 a7.5 7.5 0 1 0 15 0 a7.5 7.5 0 1 0 -15 0zM1027.17 446.95 a7.5 7.5 0 1 0 15 0 a7.5 7.5 0 1 0 -15 0zM1157.07 71.95 a7.5 7.5 0 1 0 15 0 a7.5 7.5 0 1 0 -15 0zM1222.03 109.45 a7.5 7.5 0 1 0 15 0 a7.5 7.5 0 1 0 -15 0zM1222.03 184.45 a7.5 7.5 0 1 0 15 0 a7.5 7.5 0 1 0 -15 0zM1157.07 221.95 a7.5 7.5 0 1 0 15 0 a7.5 7.5 0 1 0 -15 0zM1092.12 184.45 a7.5 7.5 0 1 0 15 0 a7.5 7.5 0 1 0 -15 0zM1092.12 109.45 a7.5 7.5 0 1 0 15 0 a7.5 7.5 0 1 0 -15 0zM1157.07 296.95 a7.5 7.5 0 1 0 15 0 a7.5 7.5 0 1 0 -15 0zM1157.07 446.95 a7.5 7.5 0 1 0 15 0 a7.5 7.5 0 1 0 -15 0zM1157.07 521.95 a7.5 7.5 0 1 0 15 0 a7.5 7.5 0 1 0 -15 0zM1092.12 559.45 a7.5 7.5 0 1 0 15 0 a7.5 7.5 0 1 0 -15 0zM1027.17 521.95 a7.5 7.5 0 1 0 15 0 a7.5 7.5 0 1 0 -15 0zM1222.03 -40.55 a7.5 7.5 0 1 0 15 0 a7.5 7.5 0 1 0 -15 0zM1286.98 -3.05 a7.5 7.5 0 1 0 15 0 a7.5 7.5 0 1 0 -15 0zM1286.98 71.95 a7.5 7.5 0 1 0 15 0 a7.5 7.5 0 1 0 -15 0zM1157.07 -3.05 a7.5 7.5 0 1 0 15 0 a7.5 7.5 0 1 0 -15 0zM1286.98 296.95 a7.5 7.5 0 1 0 15 0 a7.5 7.5 0 1 0 -15 0zM1351.93 334.45 a7.5 7.5 0 1 0 15 0 a7.5 7.5 0 1 0 -15 0zM1351.93 409.45 a7.5 7.5 0 1 0 15 0 a7.5 7.5 0 1 0 -15 0zM1286.98 446.95 a7.5 7.5 0 1 0 15 0 a7.5 7.5 0 1 0 -15 0zM1222.03 409.45 a7.5 7.5 0 1 0 15 0 a7.5 7.5 0 1 0 -15 0zM1222.03 334.45 a7.5 7.5 0 1 0 15 0 a7.5 7.5 0 1 0 -15 0zM1286.98 521.95 a7.5 7.5 0 1 0 15 0 a7.5 7.5 0 1 0 -15 0zM1351.93 559.45 a7.5 7.5 0 1 0 15 0 a7.5 7.5 0 1 0 -15 0zM1351.93 634.45 a7.5 7.5 0 1 0 15 0 a7.5 7.5 0 1 0 -15 0zM1286.98 671.95 a7.5 7.5 0 1 0 15 0 a7.5 7.5 0 1 0 -15 0zM1222.03 634.45 a7.5 7.5 0 1 0 15 0 a7.5 7.5 0 1 0 -15 0zM1222.03 559.45 a7.5 7.5 0 1 0 15 0 a7.5 7.5 0 1 0 -15 0zM1416.89 71.95 a7.5 7.5 0 1 0 15 0 a7.5 7.5 0 1 0 -15 0zM1481.84 109.45 a7.5 7.5 0 1 0 15 0 a7.5 7.5 0 1 0 -15 0zM1481.84 184.45 a7.5 7.5 0 1 0 15 0 a7.5 7.5 0 1 0 -15 0zM1416.89 221.95 a7.5 7.5 0 1 0 15 0 a7.5 7.5 0 1 0 -15 0zM1351.93 184.45 a7.5 7.5 0 1 0 15 0 a7.5 7.5 0 1 0 -15 0zM1351.93 109.45 a7.5 7.5 0 1 0 15 0 a7.5 7.5 0 1 0 -15 0zM1416.89 296.95 a7.5 7.5 0 1 0 15 0 a7.5 7.5 0 1 0 -15 0zM1286.98 221.95 a7.5 7.5 0 1 0 15 0 a7.5 7.5 0 1 0 -15 0zM1416.89 446.95 a7.5 7.5 0 1 0 15 0 a7.5 7.5 0 1 0 -15 0zM1416.89 521.95 a7.5 7.5 0 1 0 15 0 a7.5 7.5 0 1 0 -15 0zM1546.8 221.95 a7.5 7.5 0 1 0 15 0 a7.5 7.5 0 1 0 -15 0zM1546.8 296.95 a7.5 7.5 0 1 0 15 0 a7.5 7.5 0 1 0 -15 0zM1481.84 334.45 a7.5 7.5 0 1 0 15 0 a7.5 7.5 0 1 0 -15 0zM1481.84 409.45 a7.5 7.5 0 1 0 15 0 a7.5 7.5 0 1 0 -15 0zM1546.8 446.95 a7.5 7.5 0 1 0 15 0 a7.5 7.5 0 1 0 -15 0zM1546.8 521.95 a7.5 7.5 0 1 0 15 0 a7.5 7.5 0 1 0 -15 0zM1481.84 559.45 a7.5 7.5 0 1 0 15 0 a7.5 7.5 0 1 0 -15 0zM1611.75 559.45 a7.5 7.5 0 1 0 15 0 a7.5 7.5 0 1 0 -15 0zM1611.75 634.45 a7.5 7.5 0 1 0 15 0 a7.5 7.5 0 1 0 -15 0zM1546.8 671.95 a7.5 7.5 0 1 0 15 0 a7.5 7.5 0 1 0 -15 0zM1481.84 634.45 a7.5 7.5 0 1 0 15 0 a7.5 7.5 0 1 0 -15 0z" fill="rgba(0, 0, 0, 0)"></path>
        <path d="M66.76 507.3L110.06 532.3L110.06 582.3L66.76 607.3L23.46 582.3L23.46 532.3zM110.06 -17.7L153.37 7.3L153.37 57.3L110.06 82.3L66.76 57.3L66.76 7.3zM153.37 57.3L196.67 82.3L196.67 132.3L153.37 157.3L110.06 132.3L110.06 82.3zM110.06 132.3L153.37 157.3L153.37 207.3L110.06 232.3L66.76 207.3L66.76 157.3zM153.37 207.3L196.67 232.3L196.67 282.3L153.37 307.3L110.06 282.3L110.06 232.3zM110.06 432.3L153.37 457.3L153.37 507.3L110.06 532.3L66.76 507.3L66.76 457.3zM153.37 507.3L196.67 532.3L196.67 582.3L153.37 607.3L110.06 582.3L110.06 532.3zM239.97 57.3L283.27 82.3L283.27 132.3L239.97 157.3L196.67 132.3L196.67 82.3zM196.67 132.3L239.97 157.3L239.97 207.3L196.67 232.3L153.37 207.3L153.37 157.3zM239.97 207.3L283.27 232.3L283.27 282.3L239.97 307.3L196.67 282.3L196.67 232.3zM196.67 282.3L239.97 307.3L239.97 357.3L196.67 382.3L153.37 357.3L153.37 307.3zM239.97 507.3L283.27 532.3L283.27 582.3L239.97 607.3L196.67 582.3L196.67 532.3zM283.27 -17.7L326.58 7.3L326.58 57.3L283.27 82.3L239.97 57.3L239.97 7.3zM283.27 282.3L326.58 307.3L326.58 357.3L283.27 382.3L239.97 357.3L239.97 307.3zM326.58 357.3L369.88 382.3L369.88 432.3L326.58 457.3L283.27 432.3L283.27 382.3zM326.58 507.3L369.88 532.3L369.88 582.3L326.58 607.3L283.27 582.3L283.27 532.3zM369.88 -17.7L413.18 7.3L413.18 57.3L369.88 82.3L326.58 57.3L326.58 7.3zM369.88 282.3L413.18 307.3L413.18 357.3L369.88 382.3L326.58 357.3L326.58 307.3zM413.18 357.3L456.49 382.3L456.49 432.3L413.18 457.3L369.88 432.3L369.88 382.3zM413.18 507.3L456.49 532.3L456.49 582.3L413.18 607.3L369.88 582.3L369.88 532.3zM499.79 207.3L543.09 232.3L543.09 282.3L499.79 307.3L456.49 282.3L456.49 232.3zM543.09 132.3L586.39 157.3L586.39 207.3L543.09 232.3L499.79 207.3L499.79 157.3zM586.39 207.3L629.7 232.3L629.7 282.3L586.39 307.3L543.09 282.3L543.09 232.3zM673 57.3L716.3 82.3L716.3 132.3L673 157.3L629.7 132.3L629.7 82.3zM629.7 132.3L673 157.3L673 207.3L629.7 232.3L586.39 207.3L586.39 157.3zM673 507.3L716.3 532.3L716.3 582.3L673 607.3L629.7 582.3L629.7 532.3zM716.3 132.3L759.6 157.3L759.6 207.3L716.3 232.3L673 207.3L673 157.3zM759.6 207.3L802.91 232.3L802.91 282.3L759.6 307.3L716.3 282.3L716.3 232.3zM759.6 507.3L802.91 532.3L802.91 582.3L759.6 607.3L716.3 582.3L716.3 532.3zM802.91 -17.7L846.21 7.3L846.21 57.3L802.91 82.3L759.6 57.3L759.6 7.3zM846.21 207.3L889.51 232.3L889.51 282.3L846.21 307.3L802.91 282.3L802.91 232.3zM846.21 357.3L889.51 382.3L889.51 432.3L846.21 457.3L802.91 432.3L802.91 382.3zM846.21 507.3L889.51 532.3L889.51 582.3L846.21 607.3L802.91 582.3L802.91 532.3zM932.81 357.3L976.12 382.3L976.12 432.3L932.81 457.3L889.51 432.3L889.51 382.3zM889.51 432.3L932.81 457.3L932.81 507.3L889.51 532.3L846.21 507.3L846.21 457.3zM1019.42 207.3L1062.72 232.3L1062.72 282.3L1019.42 307.3L976.12 282.3L976.12 232.3zM976.12 282.3L1019.42 307.3L1019.42 357.3L976.12 382.3L932.81 357.3L932.81 307.3zM1019.42 357.3L1062.72 382.3L1062.72 432.3L1019.42 457.3L976.12 432.3L976.12 382.3zM1019.42 507.3L1062.72 532.3L1062.72 582.3L1019.42 607.3L976.12 582.3L976.12 532.3zM1062.72 282.3L1106.02 307.3L1106.02 357.3L1062.72 382.3L1019.42 357.3L1019.42 307.3zM1106.02 357.3L1149.33 382.3L1149.33 432.3L1106.02 457.3L1062.72 432.3L1062.72 382.3zM1106.02 507.3L1149.33 532.3L1149.33 582.3L1106.02 607.3L1062.72 582.3L1062.72 532.3zM1149.33 -17.7L1192.63 7.3L1192.63 57.3L1149.33 82.3L1106.02 57.3L1106.02 7.3zM1192.63 57.3L1235.93 82.3L1235.93 132.3L1192.63 157.3L1149.33 132.3L1149.33 82.3zM1192.63 357.3L1235.93 382.3L1235.93 432.3L1192.63 457.3L1149.33 432.3L1149.33 382.3zM1149.33 432.3L1192.63 457.3L1192.63 507.3L1149.33 532.3L1106.02 507.3L1106.02 457.3zM1192.63 507.3L1235.93 532.3L1235.93 582.3L1192.63 607.3L1149.33 582.3L1149.33 532.3zM1235.93 -17.7L1279.23 7.3L1279.23 57.3L1235.93 82.3L1192.63 57.3L1192.63 7.3zM1279.23 207.3L1322.54 232.3L1322.54 282.3L1279.23 307.3L1235.93 282.3L1235.93 232.3zM1235.93 432.3L1279.23 457.3L1279.23 507.3L1235.93 532.3L1192.63 507.3L1192.63 457.3zM1279.23 507.3L1322.54 532.3L1322.54 582.3L1279.23 607.3L1235.93 582.3L1235.93 532.3zM1322.54 -17.7L1365.84 7.3L1365.84 57.3L1322.54 82.3L1279.23 57.3L1279.23 7.3zM1365.84 57.3L1409.14 82.3L1409.14 132.3L1365.84 157.3L1322.54 132.3L1322.54 82.3zM1322.54 132.3L1365.84 157.3L1365.84 207.3L1322.54 232.3L1279.23 207.3L1279.23 157.3zM1365.84 207.3L1409.14 232.3L1409.14 282.3L1365.84 307.3L1322.54 282.3L1322.54 232.3zM1322.54 432.3L1365.84 457.3L1365.84 507.3L1322.54 532.3L1279.23 507.3L1279.23 457.3zM1409.14 -17.7L1452.44 7.3L1452.44 57.3L1409.14 82.3L1365.84 57.3L1365.84 7.3zM1409.14 132.3L1452.44 157.3L1452.44 207.3L1409.14 232.3L1365.84 207.3L1365.84 157.3zM1409.14 282.3L1452.44 307.3L1452.44 357.3L1409.14 382.3L1365.84 357.3L1365.84 307.3zM1452.44 357.3L1495.75 382.3L1495.75 432.3L1452.44 457.3L1409.14 432.3L1409.14 382.3zM1452.44 507.3L1495.75 532.3L1495.75 582.3L1452.44 607.3L1409.14 582.3L1409.14 532.3z" stroke="rgba(42, 196, 102, 0.28)" stroke-width="2"></path>
    </g>
    <defs>
        <mask id="SvgjsMask1002">
            <rect width="1440" height="560" fill="#ffffff"></rect>
        </mask>
    </defs>
</svg>