<svg viewBox="0 0 1502 132" xmlns="http://www.w3.org/2000/svg" xmlns:xlink="http://www.w3.org/1999/xlink"><path fill="rgba(68, 237, 128, 1)" d="M 0 0 C 767 0 0 110 767 110 L 767 110 L 767 0 L 0 0 Z" stroke-width="0"></path> <path fill="rgba(68, 237, 128, 1)" d="M 766 110 C 797 110 766 110 797 110 L 797 110 L 797 0 L 766 0 Z" stroke-width="0"></path> <path fill="rgba(68, 237, 128, 1)" d="M 796 110 C 827 110 796 110 827 110 L 827 110 L 827 0 L 796 0 Z" stroke-width="0"></path><path fill="rgba(68, 237, 128, 1)" d="M 826 110 C 857 110 826 110 857 110 L 857 110 L 857 0 L 826 0 Z" stroke-width="0"></path><path fill="rgba(68, 237, 128, 1)" d="M 856 110 C 1502 110 856 24 1502 24 L 1502 24 L 1502 0 L 856 0 Z" stroke-width="0"></path></svg>